# xmcd
#
# Track frame offsets: 
#        150
#        12871
#        26226
#        40002
#        53413
#        65277
#        78302
#        93117
#        106574
#        120160
#        134724
#        148093
#        162804
#        175689
#        189285
#        202605
#        215694
#        230609
#
# Disc length: 3261 seconds
#
# Revision: 2
# Processed by: cddbd v1.5.2PL0 Copyright (c) Steve Scherf et al.
# Submitted via: ExactAudioCopy v0.95b2
#
DISCID=db0cbb12
DTITLE=Josh White - The Essential Josh White Disc 2
DYEAR=1900
DGENRE=Blues
TTITLE0=Blood Red River Blues
TTITLE1=Bed Spring Blues
TTITLE2=Pigmeat and Whiskey Blues
TTITLE3=Sail On Little Girl No. 2 (w.Walter Roland)
TTITLE4=Hustlers Blues (w.Leroy Carr)
TTITLE5=Lazy Black Snake Blues
TTITLE6=Downhearted Man Blues
TTITLE7=Mistreated Boy (w. Buddy Moss)
TTITLE8=Silicosis is Killing Me
TTITLE9=Badly Mistreated Man
TTITLE10=New Milk Cow Blues
TTITLE11=Sisco Harmonica Blues (w.Carver Boys)
TTITLE12=Sissy Man Blues
TTITLE13=Homeless and Hungry Blues
TTITLE14=Pistol Blues (w.Walter Roland)
TTITLE15=Prison Bound Blues
TTITLE16=Hard Time Blues
TTITLE17=There's a Man Goin' Around Taking Names
EXTD=disc 2 of a 2 CD Set
EXTT0=
EXTT1=
EXTT2=
EXTT3=
EXTT4=
EXTT5=
EXTT6=
EXTT7=
EXTT8=
EXTT9=
EXTT10=
EXTT11=
EXTT12=
EXTT13=
EXTT14=
EXTT15=
EXTT16=
EXTT17=
PLAYORDER=
